<svg version="1.1" id="Layer_1" xmlns="http://www.w3.org/2000/svg" xmlns:xlink="http://www.w3.org/1999/xlink" x="0px" y="0px" viewBox="0 0 240 61.9" style="enable-background:new 0 0 240 61.9;" preserveAspectRatio="none" xml:space="preserve">
                <title>NeuroLogo_ClearSpace_v1</title>
                <path fill="inherit" class="st0" d="M7,12.3v48.6H0V0.5h7l34.8,48.2V0.5h7v60.4h-7L7,12.3z"></path>
                <path fill="inherit" class="st0" d="M102.6,40.9H62.8c1,9,7.6,15,16.6,15c5.1,0,9.6-1.7,12.6-5.5h7.7c-3.3,7.1-11.2,11.4-20.3,11.4
  	C65.7,61.8,56,52.2,56,38.4s9.7-23.4,23.4-23.4s23.4,9.7,23.4,23.4C102.8,39.2,102.7,40,102.6,40.9z M62.9,35.1h32.8
  	c-1.3-8.6-7.6-14.2-16.3-14.2S64.2,26.5,62.9,35.1z"></path>
                <path fill="inherit" class="st0" d="M109.7,15.8h6.8v27c0,7.6,4.5,12.8,12.1,12.8c7.6,0,12.1-5.2,12.1-12.8v-27h6.7v45.1h-6.7v-5.4
  	c-3,4.1-7.8,6.5-12.9,6.3c-11,0-18-7.8-18-19L109.7,15.8z"></path>
                <path fill="inherit" class="st0" d="M157.2,15.8h6.8v6.3l15.7-6.8v7l-15.7,6.5v32.1h-6.8V15.8z"></path>
                <path fill="inherit" class="st0" d="M184.1,38.5c0-13.7,9.7-23.4,23.4-23.4c13.7,0,23.4,9.8,23.4,23.4s-9.7,23.4-23.4,23.4S184.1,52.3,184.1,38.5z
  	 M224.1,38.5c0-10.3-6.8-17.4-16.6-17.4s-16.8,7.1-16.8,17.4s7,17.3,16.8,17.3S224.1,48.8,224.1,38.5z"></path>
                <path fill="inherit" class="st0" d="M233.6,12.8c-3.5,0-6.4-2.9-6.4-6.4s2.9-6.4,6.4-6.4c3.5,0,6.4,2.9,6.4,6.4C240,9.9,237.1,12.8,233.6,12.8z
  	 M233.6,1.3c-2.8,0-5.1,2.3-5.1,5.1c0,2.8,2.3,5.1,5.1,5.1s5.1-2.3,5.1-5.1v0C238.7,3.6,236.4,1.3,233.6,1.3z"></path>
                <path fill="inherit" class="st0" d="M233.4,7.1h-0.6v2.4h-1.3V3.1h2.5c1.1-0.1,2,0.7,2.1,1.8c0,0.1,0,0.1,0,0.2c0,0.9-0.5,1.6-1.4,1.8l1.4,2.6h-1.4
  	L233.4,7.1z M233.8,6c0.6,0,1-0.4,1-0.9s-0.4-0.9-1-0.9h-1V6H233.8z"></path>
            </svg>